Coordinates
version=1
nRows=8
nColumns=46
inDegrees=yes

Units are S.I. units (second, meters, Newtons, ...)
Angles are in degrees.

endheader
time	pelvis_tilt	pelvis_list	pelvis_rotation	pelvis_tx	pelvis_ty	pelvis_tz	bb_angle	bb_tx	bb_ty	bb_tz	hip_flexion_r	hip_adduction_r	hip_rotation_r	knee_angle_r	knee_angle_r_beta	ankle_angle_r	subtalar_angle_r	mtp_angle_r	crank_angle_r	hip_flexion_l	hip_adduction_l	hip_rotation_l	knee_angle_l	knee_angle_l_beta	ankle_angle_l	subtalar_angle_l	mtp_angle_l	crank_angle_l	lumbar_extension	lumbar_bending	lumbar_rotation	arm_flex_r	arm_add_r	arm_rot_r	elbow_flex_r	pro_sup_r	wrist_flex_r	wrist_dev_r	arm_flex_l	arm_add_l	arm_rot_l	elbow_flex_l	pro_sup_l	wrist_flex_l	wrist_dev_l
      2.50500000	    -16.57703698	     -1.97630833	     -7.70429357	      0.18801374	      1.13770813	     -0.22261416	      0.00000000	      0.50000000	      0.00000000	      0.25000000	     67.22110076	      4.03560273	      4.49170078	     64.67452653	      1.12878343	     12.64630137	     -8.52920101	      0.00000000	      0.00000000	     53.81755267	     -8.78436474	      4.42943076	     76.57342001	      1.33645830	    -15.75464378	     -7.89184754	      0.00000000	      0.00000000	    -61.04410501	      0.73816308	      0.87682173	     89.44366916	     -2.28761872	     36.17423884	     46.59085134	     34.50764875	      0.00000000	      0.00000000	     89.23964742	    -25.87410690	     40.16780575	     47.81420069	     35.78732246	      0.00000000	      0.00000000
      2.51000000	    -16.20191020	     -1.53840553	     -6.98711194	      0.18784256	      1.13549753	     -0.22216527	      0.00000000	      0.50000000	      0.00000000	      0.25000000	     66.13104201	      3.26917190	      4.73780623	     63.17758416	      1.10265686	     11.33404323	     -8.69814473	      0.00000000	      0.00000000	     54.76526826	     -8.09169683	      4.59435546	     79.09148716	      1.38040686	    -14.60835167	     -7.40910562	      0.00000000	      0.00000000	    -60.98657312	      0.70362462	      0.02983198	     89.42784813	     -2.41651340	     36.41226738	     46.17853152	     34.44639233	      0.00000000	      0.00000000	     89.25938136	    -25.97621737	     40.56076956	     47.93684203	     35.85939759	      0.00000000	      0.00000000
      2.51500000	    -15.85290605	     -1.08304941	     -6.17832390	      0.18774316	      1.13344478	     -0.22168851	      0.00000000	      0.50000000	      0.00000000	      0.25000000	     64.97691737	      2.41470979	      4.94007308	     61.62043718	      1.07547952	     10.07925875	     -8.92362965	      0.00000000	      0.00000000	     55.73924462	     -7.32751709	      4.78927116	     81.52397690	      1.42286182	    -13.52344403	     -6.89565002	      0.00000000	      0.00000000	    -60.91298665	      0.68620956	     -0.83994812	     89.40405874	     -2.63485918	     36.77502470	     45.68748685	     34.38905071	      0.00000000	      0.00000000	     89.28768646	    -25.98494406	     40.91893941	     48.03278947	     35.90950432	      0.00000000	      0.00000000
      2.52000000	    -15.51332393	     -0.51102820	     -5.33615914	      0.18751740	      1.13153618	     -0.22102237	      0.00000000	      0.50000000	      0.00000000	      0.25000000	     63.78170273	      1.49574398	      5.26986848	     60.03834475	      1.04786679	      8.88875817	     -8.91979088	      0.00000000	      0.00000000	     56.69860982	     -6.51038242	      4.77537556	     83.84904964	      1.46344199	    -12.48566232	     -6.82581269	      0.00000000	      0.00000000	    -60.84586565	      0.59409779	     -1.75963517	     89.35304662	     -2.85756383	     37.09488939	     45.30650866	     34.35237998	      0.00000000	      0.00000000	     89.32514853	    -25.79220659	     41.10291145	     48.11410190	     35.93416417	      0.00000000	      0.00000000
      2.52500000	    -15.19747818	      0.12332338	     -4.34851581	      0.18714922	      1.12982586	     -0.22033560	      0.00000000	      0.50000000	      0.00000000	      0.25000000	     62.53347965	      0.45906352	      5.63625021	     58.41767293	      1.01958073	      7.76232573	     -9.10821123	      0.00000000	      0.00000000	     57.69030313	     -5.52385515	      4.80207609	     86.06797361	      1.50216952	    -11.41061350	     -6.57333356	      0.00000000	      0.00000000	    -60.75900015	      0.52044693	     -2.84291985	     89.31120046	     -3.11289424	     37.43696123	     44.85597736	     34.32069603	      0.00000000	      0.00000000	     89.37482490	    -25.55157944	     41.20420012	     48.15253487	     35.95084255	      0.00000000	      0.00000000
      2.53000000	    -15.02227648	      0.54260625	     -3.23162464	      0.18704866	      1.12788752	     -0.21993741	      0.00000000	      0.50000000	      0.00000000	      0.25000000	     61.36568606	     -0.58164345	      5.62766129	     56.85704671	      0.99234267	      6.40651413	     -9.90120286	      0.00000000	      0.00000000	     58.89207632	     -4.60234138	      5.15391790	     88.37095238	      1.54236408	    -10.01921443	     -5.44860705	      0.00000000	      0.00000000	    -60.41447934	      0.67324516	     -4.01747972	     89.38350388	     -3.33581881	     38.79455950	     43.71008632	     34.24415184	      0.00000000	      0.00000000	     89.39325515	    -25.32453798	     41.47555961	     47.79386249	     35.87647579	      0.00000000	      0.00000000
      2.53500000	    -14.95452917	      0.98245655	     -2.40176483	      0.18681833	      1.12625898	     -0.21906983	      0.00000000	      0.50000000	      0.00000000	      0.25000000	     60.17146236	     -1.32004418	      5.91813254	     55.07453928	      0.96123204	      5.10811462	    -10.25866845	      0.00000000	      0.00000000	     60.16579809	     -4.00396756	      5.15783931	     90.56096926	      1.58058709	     -8.81595344	     -4.92804369	      0.00000000	      0.00000000	    -59.97764259	      0.56420774	     -4.92288357	     89.41561531	     -3.56599490	     40.51045618	     42.33107502	     34.16509661	      0.00000000	      0.00000000	     89.41802585	    -24.81666127	     41.83152641	     47.10570834	     35.70714165	      0.00000000	      0.00000000
      2.54000000	    -14.80800881	      1.56025618	     -1.40748949	      0.18656174	      1.12510495	     -0.21840466	      0.00000000	      0.50000000	      0.00000000	      0.25000000	     58.87035433	     -2.36489864	      6.04936535	     53.29860736	      0.93023619	      3.84838792	    -10.64269956	      0.00000000	      0.00000000	     61.25318045	     -3.08289589	      5.10790297	     92.52339485	      1.61483788	     -7.68911045	     -4.73534793	      0.00000000	      0.00000000	    -59.67366668	      0.41859497	     -6.00375459	     89.42257210	     -3.81629705	     41.48169481	     41.24704568	     34.04056401	      0.00000000	      0.00000000	     89.45909175	    -24.00125792	     41.83016241	     46.33562637	     35.41920460	      0.00000000	      0.00000000
